REM DIRINDEX 1\2\6,1\2\7,1\2\8,1\2\9,1\3\10,1\3\11,1\4\12,1\4\13,1\4\14,1\5\15,1\5\16,1\5\17
REM DIRNAME cjc020,folder01,folder02,folder03,folder04,folder05,folder06,folder07,folder08,folder09,folder10,folder11,folder12,folder13,folder14,folder15,folder16
TITLE ""
FILE "1900_2_sec19_1837_1856.mp3" MP3
  TRACK 01 AUDIO
    TITLE "0:"
    INDEX 01 00:00:00
  TRACK 02 AUDIO
    TITLE "13:cjc020_5836"
    INDEX 01 00:00:17
  TRACK 03 AUDIO
    TITLE "0:"
    INDEX 01 00:01:40
  TRACK 04 AUDIO
    TITLE "14:cjc020_5837"
    INDEX 01 00:01:44
  TRACK 05 AUDIO
    TITLE "0:"
    INDEX 01 00:03:55
  TRACK 06 AUDIO
    TITLE "13:cjc020_5838"
    INDEX 01 00:04:35
  TRACK 07 AUDIO
    TITLE "0:"
    INDEX 01 00:06:04
  TRACK 08 AUDIO
    TITLE "14:cjc020_5839"
    INDEX 01 00:06:06
  TRACK 09 AUDIO
    TITLE "0:"
    INDEX 01 00:08:64
  TRACK 10 AUDIO
    TITLE "13:cjc020_5840"
    INDEX 01 00:09:44
  TRACK 11 AUDIO
    TITLE "0:"
    INDEX 01 00:10:68
  TRACK 12 AUDIO
    TITLE "14:cjc020_5841"
    INDEX 01 00:10:70
  TRACK 13 AUDIO
    TITLE "0:"
    INDEX 01 00:12:09
  TRACK 14 AUDIO
    TITLE "13:cjc020_5842"
    INDEX 01 00:12:63
  TRACK 15 AUDIO
    TITLE "0:"
    INDEX 01 00:13:69
  TRACK 16 AUDIO
    TITLE "14:cjc020_5843"
    INDEX 01 00:13:71
  TRACK 17 AUDIO
    TITLE "0:"
    INDEX 01 00:15:03
  TRACK 18 AUDIO
    TITLE "13:cjc020_5844"
    INDEX 01 00:15:58
  TRACK 19 AUDIO
    TITLE "0:"
    INDEX 01 00:17:00
  TRACK 20 AUDIO
    TITLE "14:cjc020_5845"
    INDEX 01 00:17:04
  TRACK 21 AUDIO
    TITLE "0:"
    INDEX 01 00:19:50
  TRACK 22 AUDIO
    TITLE "13:cjc020_5846"
    INDEX 01 00:20:28
  TRACK 23 AUDIO
    TITLE "0:"
    INDEX 01 00:21:49
  TRACK 24 AUDIO
    TITLE "14:cjc020_5847"
    INDEX 01 00:21:53
  TRACK 25 AUDIO
    TITLE "0:"
    INDEX 01 00:22:52
  TRACK 26 AUDIO
    TITLE "13:cjc020_5848"
    INDEX 01 00:23:30
  TRACK 27 AUDIO
    TITLE "0:"
    INDEX 01 00:24:47
  TRACK 28 AUDIO
    TITLE "14:cjc020_5849"
    INDEX 01 00:24:51
  TRACK 29 AUDIO
    TITLE "0:"
    INDEX 01 00:27:73
  TRACK 30 AUDIO
    TITLE "13:cjc020_5850"
    INDEX 01 00:28:55
  TRACK 31 AUDIO
    TITLE "0:"
    INDEX 01 00:30:10
  TRACK 32 AUDIO
    TITLE "14:cjc020_5851"
    INDEX 01 00:30:12
  TRACK 33 AUDIO
    TITLE "0:"
    INDEX 01 00:32:25
  TRACK 34 AUDIO
    TITLE "13:cjc020_5852"
    INDEX 01 00:33:05
  TRACK 35 AUDIO
    TITLE "0:"
    INDEX 01 00:34:18
  TRACK 36 AUDIO
    TITLE "14:cjc020_5853"
    INDEX 01 00:34:20
  TRACK 37 AUDIO
    TITLE "0:"
    INDEX 01 00:35:37
  TRACK 38 AUDIO
    TITLE "13:cjc020_5854"
    INDEX 01 00:36:17
  TRACK 39 AUDIO
    TITLE "0:"
    INDEX 01 00:37:28
  TRACK 40 AUDIO
    TITLE "14:cjc020_5855"
    INDEX 01 00:37:32
  TRACK 41 AUDIO
    TITLE "0:"
    INDEX 01 00:38:45
  TRACK 42 AUDIO
    TITLE "13:cjc020_5856"
    INDEX 01 00:39:25
  TRACK 43 AUDIO
    TITLE "0:"
    INDEX 01 00:40:30
  TRACK 44 AUDIO
    TITLE "14:cjc020_5857"
    INDEX 01 00:40:34
  TRACK 45 AUDIO
    TITLE "0:"
    INDEX 01 00:42:72
  TRACK 46 AUDIO
    TITLE "13:cjc020_5858"
    INDEX 01 00:43:48
  TRACK 47 AUDIO
    TITLE "0:"
    INDEX 01 00:44:52
  TRACK 48 AUDIO
    TITLE "14:cjc020_5859"
    INDEX 01 00:44:58
  TRACK 49 AUDIO
    TITLE "0:"
    INDEX 01 00:48:73
  TRACK 50 AUDIO
    TITLE "13:cjc020_5860"
    INDEX 01 00:49:53
  TRACK 51 AUDIO
    TITLE "0:"
    INDEX 01 00:50:72
  TRACK 52 AUDIO
    TITLE "14:cjc020_5861"
    INDEX 01 00:51:01
  TRACK 53 AUDIO
    TITLE "0:"
    INDEX 01 00:53:21
  TRACK 54 AUDIO
    TITLE "13:cjc020_5862"
    INDEX 01 00:53:72
  TRACK 55 AUDIO
    TITLE "0:"
    INDEX 01 00:54:74
  TRACK 56 AUDIO
    TITLE "14:cjc020_5863"
    INDEX 01 00:55:03
  TRACK 57 AUDIO
    TITLE "0:"
    INDEX 01 00:57:27
  TRACK 58 AUDIO
    TITLE "13:cjc020_5864"
    INDEX 01 00:58:03
  TRACK 59 AUDIO
    TITLE "0:"
    INDEX 01 00:59:16
  TRACK 60 AUDIO
    TITLE "14:cjc020_5865"
    INDEX 01 00:59:20
  TRACK 61 AUDIO
    TITLE "0:"
    INDEX 01 01:01:38
  TRACK 62 AUDIO
    TITLE "13:cjc020_5866"
    INDEX 01 01:02:18
  TRACK 63 AUDIO
    TITLE "0:"
    INDEX 01 01:03:45
  TRACK 64 AUDIO
    TITLE "14:cjc020_5867"
    INDEX 01 01:03:47
  TRACK 65 AUDIO
    TITLE "0:"
    INDEX 01 01:04:62
  TRACK 66 AUDIO
    TITLE "13:cjc020_5868"
    INDEX 01 01:05:42
  TRACK 67 AUDIO
    TITLE "0:"
    INDEX 01 01:06:57
  TRACK 68 AUDIO
    TITLE "14:cjc020_5869"
    INDEX 01 01:06:59
  TRACK 69 AUDIO
    TITLE "0:"
    INDEX 01 01:09:16
  TRACK 70 AUDIO
    TITLE "13:cjc020_5870"
    INDEX 01 01:09:69
  TRACK 71 AUDIO
    TITLE "0:"
    INDEX 01 01:11:03
  TRACK 72 AUDIO
    TITLE "14:cjc020_5871"
    INDEX 01 01:11:05
  TRACK 73 AUDIO
    TITLE "0:"
    INDEX 01 01:12:07
  TRACK 74 AUDIO
    TITLE "13:cjc020_5872"
    INDEX 01 01:12:62
  TRACK 75 AUDIO
    TITLE "0:"
    INDEX 01 01:13:65
  TRACK 76 AUDIO
    TITLE "14:cjc020_5873"
    INDEX 01 01:13:67
  TRACK 77 AUDIO
    TITLE "0:"
    INDEX 01 01:17:59
  TRACK 78 AUDIO
    TITLE "13:cjc020_5874"
    INDEX 01 01:18:35
  TRACK 79 AUDIO
    TITLE "0:"
    INDEX 01 01:19:44
  TRACK 80 AUDIO
    TITLE "14:cjc020_5875"
    INDEX 01 01:19:46
  TRACK 81 AUDIO
    TITLE "0:"
    INDEX 01 01:21:65
